<svg width="361" height="95" viewBox="0 0 361 95" fill="none" xmlns="http://www.w3.org/2000/svg">
<path fill-rule="evenodd" clip-rule="evenodd" d="M43.872 0C40.4106 0 37.6046 2.80602 37.6046 6.26742V87.744C37.6046 91.2054 40.4106 94.0114 43.872 94.0114C47.3334 94.0114 50.1394 91.2054 50.1394 87.744V6.26743C50.1394 2.80602 47.3334 0 43.872 0ZM6.26743 21.936C2.80603 21.936 0 24.742 0 28.2034V62.6743C0 66.1357 2.80603 68.9417 6.26743 68.9417C9.72883 68.9417 12.5349 66.1357 12.5349 62.6743V28.2034C12.5349 24.742 9.72883 21.936 6.26743 21.936ZM18.8023 47.0057C18.8023 43.5443 21.6083 40.7383 25.0697 40.7383C28.5311 40.7383 31.3371 43.5443 31.3371 47.0057V56.4068C31.3371 59.8683 28.5311 62.6743 25.0697 62.6743C21.6083 62.6743 18.8023 59.8683 18.8023 56.4069V47.0057ZM62.6743 50.1394C59.2129 50.1394 56.4069 52.9454 56.4069 56.4068V81.4766C56.4069 84.938 59.2129 87.744 62.6743 87.744C66.1357 87.744 68.9417 84.938 68.9417 81.4766V56.4068C68.9417 52.9454 66.1357 50.1394 62.6743 50.1394ZM56.4069 15.6686C56.4069 12.2072 59.2129 9.40114 62.6743 9.40114C66.1357 9.40114 68.9417 12.2072 68.9417 15.6686V37.6046C68.9417 41.066 66.1357 43.872 62.6743 43.872C59.2129 43.872 56.4069 41.066 56.4069 37.6046V15.6686ZM25.0697 68.9417C21.6083 68.9417 18.8023 71.7477 18.8023 75.2091V81.4766C18.8023 84.938 21.6083 87.744 25.0697 87.744C28.5311 87.744 31.3371 84.938 31.3371 81.4766V75.2091C31.3371 71.7477 28.5311 68.9417 25.0697 68.9417ZM18.8023 15.6686C18.8023 12.2072 21.6083 9.40114 25.0697 9.40114C28.5311 9.40114 31.3371 12.2072 31.3371 15.6686V28.2034C31.3371 31.6648 28.5311 34.4709 25.0697 34.4709C21.6083 34.4709 18.8023 31.6648 18.8023 28.2034V15.6686ZM81.4766 21.936C78.0152 21.936 75.2092 24.742 75.2092 28.2034V62.6743C75.2092 66.1357 78.0152 68.9417 81.4766 68.9417C84.938 68.9417 87.744 66.1357 87.744 62.6743V28.2034C87.744 24.742 84.938 21.936 81.4766 21.936Z" fill="url(#paint0_linear_16_182)"/>
<path d="M129.493 67.8386C130.596 67.8386 131.649 67.8136 132.652 67.7634C133.655 67.7133 134.457 67.6381 135.059 67.5378V59.0392C134.608 58.9389 133.931 58.8386 133.028 58.7383C132.126 58.6381 131.298 58.5879 130.546 58.5879C129.493 58.5879 128.491 58.6631 127.538 58.8135C126.635 58.9138 125.833 59.1395 125.131 59.4904C124.429 59.8414 123.878 60.3177 123.477 60.9194C123.076 61.5211 122.875 62.2732 122.875 63.1757C122.875 64.9306 123.452 66.159 124.605 66.8609C125.808 67.5127 127.438 67.8386 129.493 67.8386ZM128.591 35.0475C131.9 35.0475 134.658 35.4235 136.864 36.1756C139.07 36.9277 140.825 38.0057 142.129 39.4096C143.482 40.8135 144.435 42.5182 144.986 44.5238C145.538 46.5294 145.814 48.7606 145.814 51.2174V74.5323C144.209 74.8832 141.978 75.2844 139.12 75.7356C136.262 76.237 132.803 76.4877 128.741 76.4877C126.184 76.4877 123.853 76.2621 121.747 75.8108C119.691 75.3596 117.911 74.6325 116.407 73.6297C114.903 72.5768 113.75 71.2231 112.947 69.5685C112.145 67.9139 111.744 65.8832 111.744 63.4765C111.744 61.1701 112.195 59.2147 113.098 57.6102C114.05 56.0057 115.304 54.7272 116.858 53.7745C118.413 52.8219 120.193 52.145 122.198 51.7439C124.204 51.2926 126.284 51.067 128.44 51.067C129.894 51.067 131.173 51.1422 132.276 51.2926C133.429 51.3929 134.357 51.5433 135.059 51.7439V50.691C135.059 48.7857 134.482 47.2564 133.329 46.1032C132.176 44.95 130.17 44.3734 127.312 44.3734C125.407 44.3734 123.527 44.5238 121.672 44.8246C119.816 45.0753 118.212 45.4514 116.858 45.9528L115.429 36.9277C116.081 36.7271 116.883 36.5266 117.836 36.326C118.839 36.0753 119.917 35.8748 121.07 35.7243C122.223 35.5238 123.427 35.3734 124.68 35.2731C125.984 35.1227 127.287 35.0475 128.591 35.0475Z" fill="#F3F4F6"/>
<path d="M177.532 46.028C176.529 45.7773 175.351 45.5266 173.997 45.2759C172.643 44.9751 171.189 44.8246 169.635 44.8246C168.933 44.8246 168.081 44.8999 167.078 45.0503C166.125 45.1506 165.398 45.2759 164.897 45.4263V75.6604H153.691V38.2062C155.696 37.5043 158.053 36.8525 160.76 36.2508C163.518 35.599 166.577 35.2731 169.936 35.2731C170.538 35.2731 171.265 35.3232 172.117 35.4235C172.969 35.4736 173.822 35.5739 174.674 35.7243C175.526 35.8246 176.379 35.975 177.231 36.1756C178.084 36.326 178.811 36.5266 179.412 36.7773L177.532 46.028Z" fill="#F3F4F6"/>
<path d="M182.787 26.248L193.993 24.443V36.1004H207.456V45.4263H193.993V59.34C193.993 61.6966 194.395 63.5768 195.197 64.9807C196.049 66.3846 197.729 67.0866 200.236 67.0866C201.439 67.0866 202.668 66.9863 203.921 66.7857C205.225 66.535 206.403 66.2091 207.456 65.808L209.035 74.5323C207.682 75.0838 206.177 75.5601 204.523 75.9612C202.868 76.3624 200.837 76.5629 198.431 76.5629C195.372 76.5629 192.84 76.1618 190.835 75.3596C188.829 74.5072 187.225 73.354 186.021 71.8999C184.818 70.3958 183.966 68.5907 183.464 66.4849C183.013 64.379 182.787 62.0475 182.787 59.4904V26.248Z" fill="#F3F4F6"/>
<path d="M210.976 56.1812C210.976 52.6715 211.502 49.613 212.555 47.0057C213.658 44.3483 215.087 42.1422 216.842 40.3873C218.597 38.6324 220.603 37.3037 222.859 36.4012C225.165 35.4987 227.522 35.0475 229.929 35.0475C235.544 35.0475 239.982 36.7773 243.241 40.2369C246.5 43.6464 248.129 48.6854 248.129 55.3539C248.129 56.0057 248.104 56.7328 248.054 57.535C248.004 58.2871 247.954 58.964 247.904 59.5656H222.483C222.734 61.8721 223.812 63.7021 225.717 65.0559C227.622 66.4097 230.179 67.0866 233.388 67.0866C235.444 67.0866 237.45 66.9111 239.405 66.5601C241.411 66.159 243.04 65.6827 244.294 65.1311L245.798 74.2314C245.196 74.5323 244.394 74.8331 243.391 75.1339C242.388 75.4348 241.26 75.6855 240.007 75.886C238.803 76.1367 237.5 76.3373 236.096 76.4877C234.692 76.6381 233.288 76.7133 231.884 76.7133C228.324 76.7133 225.216 76.1869 222.558 75.1339C219.951 74.081 217.77 72.652 216.015 70.847C214.31 68.9919 213.032 66.8108 212.179 64.3038C211.377 61.7968 210.976 59.0893 210.976 56.1812ZM237.299 51.8943C237.249 50.9417 237.074 50.0141 236.773 49.1116C236.522 48.2091 236.096 47.4068 235.494 46.7049C234.943 46.0029 234.216 45.4263 233.313 44.9751C232.461 44.5238 231.383 44.2982 230.079 44.2982C228.826 44.2982 227.748 44.5238 226.845 44.9751C225.943 45.3762 225.191 45.9277 224.589 46.6297C223.987 47.3316 223.511 48.1589 223.16 49.1116C222.859 50.0141 222.633 50.9417 222.483 51.8943H237.299Z" fill="#F3F4F6"/>
<path d="M271.669 17.2981C273.774 17.2981 275.705 17.5237 277.46 17.975C279.215 18.3761 280.568 18.7772 281.521 19.1783L279.34 28.1282C278.337 27.677 277.234 27.3511 276.031 27.1505C274.878 26.8998 273.8 26.7744 272.797 26.7744C271.443 26.7744 270.29 26.975 269.337 27.3761C268.435 27.7271 267.708 28.2285 267.156 28.8803C266.655 29.5321 266.279 30.3093 266.028 31.2118C265.827 32.1143 265.727 33.092 265.727 34.1449V36.1004H279.566V45.4263H265.727V75.6604H254.521V33.9945C254.521 28.8803 255.95 24.819 258.808 21.8106C261.716 18.8023 266.003 17.2981 271.669 17.2981Z" fill="#F3F4F6"/>
<path d="M298.523 67.8386C299.626 67.8386 300.679 67.8136 301.682 67.7634C302.685 67.7133 303.487 67.6381 304.088 67.5378V59.0392C303.637 58.9389 302.96 58.8386 302.058 58.7383C301.155 58.6381 300.328 58.5879 299.576 58.5879C298.523 58.5879 297.52 58.6631 296.568 58.8135C295.665 58.9138 294.863 59.1395 294.161 59.4904C293.459 59.8414 292.907 60.3177 292.506 60.9194C292.105 61.5211 291.905 62.2732 291.905 63.1757C291.905 64.9306 292.481 66.159 293.634 66.8609C294.838 67.5127 296.467 67.8386 298.523 67.8386ZM297.62 35.0475C300.93 35.0475 303.687 35.4235 305.894 36.1756C308.1 36.9277 309.855 38.0057 311.158 39.4096C312.512 40.8135 313.465 42.5182 314.016 44.5238C314.568 46.5294 314.843 48.7606 314.843 51.2174V74.5323C313.239 74.8832 311.008 75.2844 308.15 75.7356C305.292 76.237 301.832 76.4877 297.771 76.4877C295.214 76.4877 292.882 76.2621 290.776 75.8108C288.721 75.3596 286.941 74.6325 285.437 73.6297C283.932 72.5768 282.779 71.2231 281.977 69.5685C281.175 67.9139 280.774 65.8832 280.774 63.4765C280.774 61.1701 281.225 59.2147 282.127 57.6102C283.08 56.0057 284.334 54.7272 285.888 53.7745C287.442 52.8219 289.222 52.145 291.228 51.7439C293.233 51.2926 295.314 51.067 297.47 51.067C298.924 51.067 300.203 51.1422 301.306 51.2926C302.459 51.3929 303.387 51.5433 304.088 51.7439V50.691C304.088 48.7857 303.512 47.2564 302.359 46.1032C301.205 44.95 299.2 44.3734 296.342 44.3734C294.437 44.3734 292.556 44.5238 290.701 44.8246C288.846 45.0753 287.242 45.4514 285.888 45.9528L284.459 36.9277C285.111 36.7271 285.913 36.5266 286.866 36.326C287.868 36.0753 288.946 35.8748 290.1 35.7243C291.253 35.5238 292.456 35.3734 293.71 35.2731C295.013 35.1227 296.317 35.0475 297.62 35.0475Z" fill="#F3F4F6"/>
<path d="M333.927 50.3901C335.03 49.1868 336.158 47.9333 337.311 46.6297C338.514 45.326 339.667 44.0475 340.771 42.794C341.874 41.4904 342.901 40.262 343.854 39.1087C344.857 37.9555 345.709 36.9528 346.411 36.1004H359.723C357.066 39.1589 354.459 42.092 351.902 44.8999C349.395 47.6575 346.637 50.5155 343.629 53.4737C345.133 54.8275 346.687 56.457 348.291 58.3623C349.896 60.2174 351.45 62.1478 352.954 64.1534C354.459 66.159 355.837 68.1646 357.091 70.1701C358.344 72.1757 359.397 74.0058 360.25 75.6604H347.389C346.587 74.3568 345.659 72.9278 344.606 71.3735C343.603 69.769 342.525 68.1896 341.372 66.6353C340.219 65.0308 338.991 63.5016 337.687 62.0475C336.434 60.5935 335.18 59.3651 333.927 58.3623V75.6604H322.72V19.1031L333.927 17.2981V50.3901Z" fill="#F3F4F6"/>
<defs>
<linearGradient id="paint0_linear_16_182" x1="70.5086" y1="-1.20409e-06" x2="1.1784e-06" y2="125.349" gradientUnits="userSpaceOnUse">
<stop stop-color="#E94E0F"/>
<stop offset="1" stop-color="#BD1DB7"/>
</linearGradient>
</defs>
</svg>
