<svg width="264" height="100" viewBox="0 0 264 100" fill="none" xmlns="http://www.w3.org/2000/svg">
<g filter="url(#filter0_d_140_3723)">
<path d="M101.133 65.512H92.2174L102.262 35.3798H113.555L123.6 65.512H114.685L108.028 43.6779H107.79L101.133 65.512ZM99.4688 53.6239H116.23V59.7445H99.4688V53.6239Z" fill="#F3F4F6"/>
<path d="M126.65 65.512V42.9129H134.615V47.209H134.853C135.269 45.62 135.927 44.4577 136.829 43.7221C137.74 42.9864 138.805 42.6186 140.024 42.6186C140.38 42.6186 140.732 42.648 141.079 42.7069C141.435 42.7559 141.777 42.8295 142.104 42.9276V49.8574C141.698 49.7201 141.198 49.6171 140.603 49.5484C140.009 49.4797 139.499 49.4454 139.073 49.4454C138.27 49.4454 137.547 49.6269 136.903 49.9898C136.269 50.3429 135.769 50.8431 135.402 51.4905C135.036 52.1281 134.853 52.8784 134.853 53.7416V65.512H126.65Z" fill="#F3F4F6"/>
<path d="M159.345 42.9129V48.798H144.307V42.9129H159.345ZM147.219 37.4985H155.422V58.2438C155.422 58.5576 155.476 58.8225 155.585 59.0383C155.694 59.2442 155.862 59.4012 156.09 59.5091C156.318 59.6072 156.61 59.6562 156.967 59.6562C157.215 59.6562 157.502 59.6268 157.829 59.5679C158.166 59.5091 158.413 59.46 158.572 59.4208L159.761 65.1294C159.394 65.2373 158.869 65.3697 158.185 65.5267C157.512 65.6836 156.709 65.7866 155.778 65.8356C153.896 65.9337 152.316 65.7425 151.038 65.2618C149.76 64.7714 148.799 64.0014 148.155 62.9519C147.512 61.9024 147.199 60.588 147.219 59.0088V37.4985Z" fill="#F3F4F6"/>
<path d="M173.383 65.9239C170.946 65.9239 168.846 65.4629 167.083 64.5409C165.329 63.6091 163.977 62.2751 163.026 60.539C162.085 58.793 161.614 56.7038 161.614 54.2713C161.614 51.9368 162.09 49.8966 163.041 48.1507C163.992 46.4047 165.334 45.0462 167.068 44.0752C168.801 43.1041 170.847 42.6186 173.205 42.6186C174.928 42.6186 176.488 42.8834 177.885 43.4131C179.282 43.9428 180.476 44.7127 181.466 45.723C182.457 46.7235 183.22 47.9398 183.755 49.3718C184.29 50.8039 184.557 52.4174 184.557 54.2124V56.0957H164.17V51.6229H177.009C176.999 50.9756 176.83 50.4067 176.503 49.9162C176.186 49.416 175.755 49.0285 175.211 48.7539C174.676 48.4695 174.066 48.3272 173.383 48.3272C172.719 48.3272 172.11 48.4695 171.555 48.7539C171 49.0285 170.555 49.4111 170.218 49.9015C169.891 50.3919 169.718 50.9657 169.698 51.6229V56.4488C169.698 57.1746 169.851 57.822 170.158 58.3909C170.465 58.9598 170.906 59.4061 171.481 59.7298C172.055 60.0534 172.749 60.2153 173.561 60.2153C174.126 60.2153 174.641 60.1368 175.107 59.9799C175.582 59.8229 175.988 59.5973 176.325 59.3031C176.662 58.999 176.91 58.6361 177.068 58.2143H184.557C184.3 59.7837 183.69 61.1471 182.729 62.3045C181.769 63.4521 180.496 64.3447 178.911 64.9823C177.335 65.61 175.493 65.9239 173.383 65.9239Z" fill="#F3F4F6"/>
<path d="M201.575 42.9129V48.798H186.299V42.9129H201.575ZM189.212 65.512V42.2655C189.212 40.4019 189.549 38.857 190.222 37.6309C190.896 36.4048 191.847 35.4877 193.075 34.8796C194.304 34.2715 195.75 33.9674 197.414 33.9674C198.454 33.9674 199.465 34.0459 200.445 34.2028C201.436 34.3597 202.169 34.4971 202.645 34.6148L201.456 40.4411C201.159 40.3528 200.812 40.2842 200.416 40.2351C200.02 40.1763 199.673 40.1468 199.376 40.1468C198.603 40.1468 198.083 40.3087 197.815 40.6324C197.548 40.956 197.414 41.3827 197.414 41.9124V65.512H189.212Z" fill="#F3F4F6"/>
<path d="M210.16 65.8651C208.704 65.8651 207.416 65.6297 206.296 65.1588C205.187 64.6782 204.315 63.9524 203.681 62.9813C203.047 62.0103 202.73 60.7744 202.73 59.2737C202.73 58.0378 202.943 56.9833 203.369 56.1104C203.795 55.2276 204.389 54.5067 205.152 53.9476C205.915 53.3885 206.802 52.9618 207.812 52.6675C208.832 52.3733 209.932 52.182 211.111 52.0937C212.389 51.9957 213.414 51.878 214.187 51.7406C214.969 51.5935 215.534 51.3924 215.881 51.1374C216.227 50.8726 216.401 50.5244 216.401 50.0928V50.0339C216.401 49.4454 216.173 48.9942 215.717 48.6803C215.261 48.3665 214.677 48.2095 213.964 48.2095C213.181 48.2095 212.542 48.3812 212.047 48.7245C211.562 49.058 211.269 49.5729 211.17 50.2693H203.622C203.721 48.8961 204.162 47.6308 204.944 46.4734C205.737 45.3062 206.891 44.3744 208.406 43.6779C209.922 42.9717 211.814 42.6186 214.083 42.6186C215.717 42.6186 217.183 42.8099 218.481 43.1924C219.779 43.5651 220.883 44.0899 221.795 44.7667C222.706 45.4337 223.399 46.2184 223.875 47.1208C224.36 48.0134 224.603 48.9844 224.603 50.0339V65.512H216.936V62.334H216.757C216.302 63.1775 215.747 63.8592 215.093 64.3791C214.449 64.8989 213.711 65.2765 212.879 65.512C212.057 65.7474 211.15 65.8651 210.16 65.8651ZM212.834 60.745C213.459 60.745 214.043 60.6174 214.588 60.3624C215.143 60.1074 215.593 59.7396 215.94 59.259C216.287 58.7783 216.46 58.1947 216.46 57.5081V55.6248C216.242 55.7131 216.009 55.7965 215.762 55.875C215.524 55.9534 215.266 56.027 214.989 56.0957C214.722 56.1643 214.434 56.2281 214.127 56.2869C213.83 56.3458 213.518 56.3997 213.191 56.4488C212.557 56.5469 212.037 56.7087 211.631 56.9343C211.235 57.1501 210.937 57.4198 210.739 57.7435C210.551 58.0574 210.457 58.4105 210.457 58.8028C210.457 59.4306 210.68 59.9112 211.126 60.2447C211.571 60.5782 212.141 60.745 212.834 60.745Z" fill="#F3F4F6"/>
<path d="M235.892 60.1564L235.952 50.5047H237.022L242.549 42.9129H251.762L242.49 54.7421H240.172L235.892 60.1564ZM228.522 65.512V35.3798H236.725V65.512H228.522ZM242.609 65.512L237.378 56.5665L242.728 50.799L252 65.512H242.609Z" fill="#F3F4F6"/>
<path fill-rule="evenodd" clip-rule="evenodd" d="M57.3714 60.7781L62.7067 63.8562C62.5675 63.9456 62.4253 64.0315 62.2803 64.1139L51.5326 70.2242C48.6783 71.8469 45.1618 71.8469 42.3075 70.2242L31.5598 64.1139C31.4148 64.0315 31.2727 63.9456 31.1334 63.8562L36.4687 60.7781L44.9398 65.5941C46.1619 66.2888 47.6782 66.2888 48.9003 65.5941L57.3714 60.7781ZM48.2533 55.5177L50.9173 57.0546L48.7651 58.2973C47.6234 58.9565 46.2167 58.9565 45.075 58.2973L42.9228 57.0546L45.5868 55.5177L46.4066 55.9911C46.7243 56.1746 47.1158 56.1746 47.4335 55.9911L48.2533 55.5177ZM24.3007 67.7982C24.3037 67.7999 24.3068 67.8017 24.3098 67.8034L42.9255 78.5512C45.3973 79.9783 48.4428 79.9783 50.9146 78.5512L69.5303 67.8034C69.5333 67.8017 69.5364 67.7999 69.5394 67.7981L76.9455 72.0709C75.9441 73.0925 74.7974 73.9875 73.5249 74.7222L54.9092 85.47C49.9655 88.3242 43.8746 88.3242 38.9309 85.47L20.3152 74.7222C19.0427 73.9875 17.896 73.0925 16.8946 72.0709L24.3007 67.7982Z" fill="#F3F4F6"/>
<path fill-rule="evenodd" clip-rule="evenodd" d="M69.5303 32.4703L50.9146 21.7225C48.4428 20.2954 45.3973 20.2954 42.9255 21.7225L24.3098 32.4703C21.8379 33.8974 20.3152 36.5348 20.3152 39.3891V60.8846C20.3152 62.3085 20.6942 63.6784 21.3808 64.871L14.4608 68.8634C13.0852 66.4767 12.3261 63.7347 12.3261 60.8846V39.3891C12.3261 33.6806 15.3715 28.4057 20.3152 25.5515L38.9309 14.8037C43.8746 11.9495 49.9655 11.9495 54.9092 14.8037L73.5249 25.5515C78.4686 28.4057 81.514 33.6806 81.514 39.3891V60.8846C81.514 63.7347 80.7548 66.4767 79.3793 68.8633L72.4592 64.871C73.1459 63.6784 73.5249 62.3085 73.5249 60.8846V39.3891C73.5249 36.5348 72.0021 33.8974 69.5303 32.4703ZM65.587 60.9063C66.4275 59.521 66.8929 57.9167 66.8929 56.2471V44.0266C66.8929 40.7813 65.1346 37.7824 62.2803 36.1598L51.5326 30.0495C48.6783 28.4268 45.1618 28.4268 42.3075 30.0495L31.5597 36.1598C28.7055 37.7824 26.9472 40.7813 26.9472 44.0266V56.2471C26.9472 57.9167 27.4126 59.521 28.2531 60.9063L32.8691 58.2432C32.4826 57.6484 32.2733 56.9563 32.2733 56.2471V44.0266C32.2733 42.7244 32.9788 41.4796 34.192 40.7899L44.9398 34.6797C46.1619 33.9849 47.6782 33.9849 48.9003 34.6797L59.6481 40.7899C60.8613 41.4796 61.5668 42.7244 61.5668 44.0266V56.2471C61.5668 56.9563 61.3575 57.6484 60.971 58.2432L65.587 60.9063ZM54.4163 54.4616C54.7339 53.9105 54.9092 53.2773 54.9092 52.6191V47.6546C54.9092 46.3361 54.2059 45.1179 53.0642 44.4587L48.7651 41.9764C47.6234 41.3172 46.2167 41.3172 45.075 41.9764L40.7759 44.4587C39.6342 45.1179 38.9309 46.3361 38.9309 47.6546V52.6191C38.9309 53.2773 39.1062 53.9105 39.4238 54.4616L41.7304 53.1309C41.6425 52.9777 41.594 52.8019 41.594 52.6191V47.6546C41.594 47.2875 41.7898 46.9483 42.1075 46.7649L46.4066 44.2826C46.7243 44.0991 47.1158 44.0991 47.4335 44.2826L51.7326 46.7649C52.0503 46.9483 52.2461 47.2875 52.2461 47.6546V52.6191C52.2461 52.8019 52.1976 52.9777 52.1097 53.1309L54.4163 54.4616Z" fill="#DC2626"/>
<mask id="mask0_140_3723" style="mask-type:alpha" maskUnits="userSpaceOnUse" x="12" y="12" width="70" height="57">
<path fill-rule="evenodd" clip-rule="evenodd" d="M69.5303 32.4703L50.9146 21.7225C48.4428 20.2954 45.3973 20.2954 42.9255 21.7225L24.3098 32.4703C21.8379 33.8974 20.3152 36.5348 20.3152 39.3891V60.8846C20.3152 62.3085 20.6942 63.6784 21.3808 64.871L14.4608 68.8633C13.0852 66.4767 12.3261 63.7347 12.3261 60.8846V39.3891C12.3261 33.6806 15.3715 28.4057 20.3152 25.5515L38.9309 14.8037C43.8746 11.9495 49.9655 11.9495 54.9092 14.8037L73.5249 25.5515C78.4686 28.4057 81.514 33.6806 81.514 39.3891V60.8846C81.514 63.7347 80.7548 66.4767 79.3793 68.8633L72.4592 64.871C73.1459 63.6784 73.5249 62.3085 73.5249 60.8846V39.3891C73.5249 36.5348 72.0021 33.8974 69.5303 32.4703ZM65.587 60.9062C66.4275 59.521 66.8929 57.9167 66.8929 56.2471V44.0266C66.8929 40.7812 65.1346 37.7824 62.2803 36.1597L51.5326 30.0495C48.6783 28.4268 45.1618 28.4268 42.3075 30.0495L31.5597 36.1597C28.7055 37.7824 26.9472 40.7812 26.9472 44.0266V56.2471C26.9472 57.9167 27.4126 59.521 28.2531 60.9062L32.8691 58.2432C32.4826 57.6484 32.2733 56.9563 32.2733 56.2471V44.0266C32.2733 42.7244 32.9788 41.4796 34.192 40.7899L44.9398 34.6796C46.1619 33.9849 47.6782 33.9849 48.9003 34.6796L59.6481 40.7899C60.8613 41.4796 61.5668 42.7244 61.5668 44.0266V56.2471C61.5668 56.9563 61.3575 57.6484 60.971 58.2432L65.587 60.9062ZM54.4163 54.4616C54.7339 53.9105 54.9092 53.2773 54.9092 52.6191V47.6546C54.9092 46.3361 54.2059 45.1179 53.0642 44.4586L48.7651 41.9764C47.6234 41.3172 46.2167 41.3172 45.075 41.9764L40.7759 44.4586C39.6342 45.1179 38.9309 46.3361 38.9309 47.6546V52.6191C38.9309 53.2773 39.1062 53.9105 39.4238 54.4616L41.7304 53.1308C41.6425 52.9777 41.594 52.8019 41.594 52.6191V47.6546C41.594 47.2874 41.7898 46.9483 42.1075 46.7649L46.4066 44.2826C46.7243 44.0991 47.1158 44.0991 47.4335 44.2826L51.7326 46.7649C52.0503 46.9483 52.2461 47.2874 52.2461 47.6546V52.6191C52.2461 52.8019 52.1976 52.9777 52.1097 53.1308L54.4163 54.4616Z" fill="#DC2626"/>
</mask>
<g mask="url(#mask0_140_3723)">
<g filter="url(#filter1_f_140_3723)">
<rect x="54.071" y="61.3109" width="65.9103" height="19.3071" rx="9.65353" transform="rotate(-143.618 54.071 61.3109)" fill="#F97316"/>
</g>
</g>
</g>
<defs>
<filter id="filter0_d_140_3723" x="-5" y="-2" width="269" height="103.891" filterUnits="userSpaceOnUse" color-interpolation-filters="sRGB">
<feFlood flood-opacity="0" result="BackgroundImageFix"/>
<feColorMatrix in="SourceAlpha" type="matrix" values="0 0 0 0 0 0 0 0 0 0 0 0 0 0 0 0 0 0 127 0" result="hardAlpha"/>
<feOffset/>
<feGaussianBlur stdDeviation="6"/>
<feComposite in2="hardAlpha" operator="out"/>
<feColorMatrix type="matrix" values="0 0 0 0 0.0705882 0 0 0 0 0.0705882 0 0 0 0 0.0705882 0 0 0 0.2 0"/>
<feBlend mode="normal" in2="BackgroundImageFix" result="effect1_dropShadow_140_3723"/>
<feBlend mode="normal" in="SourceGraphic" in2="effect1_dropShadow_140_3723" result="shape"/>
</filter>
<filter id="filter1_f_140_3723" x="-11.792" y="-6.12897" width="90.1156" height="80.2401" filterUnits="userSpaceOnUse" color-interpolation-filters="sRGB">
<feFlood flood-opacity="0" result="BackgroundImageFix"/>
<feBlend mode="normal" in="SourceGraphic" in2="BackgroundImageFix" result="shape"/>
<feGaussianBlur stdDeviation="8.32201" result="effect1_foregroundBlur_140_3723"/>
</filter>
</defs>
</svg>
