<svg width="230" height="61" viewBox="0 0 230 61" fill="none" xmlns="http://www.w3.org/2000/svg">
<path fill-rule="evenodd" clip-rule="evenodd" d="M28.0034 0C25.794 0 24.0029 1.79108 24.0029 4.00049V56.0068C24.0029 58.2162 25.794 60.0073 28.0034 60.0073C30.2128 60.0073 32.0039 58.2162 32.0039 56.0068V4.00049C32.0039 1.79108 30.2128 0 28.0034 0ZM4.00049 14.0017C1.79108 14.0017 0 15.7928 0 18.0022V40.0049C0 42.2143 1.79108 44.0053 4.00049 44.0053C6.2099 44.0053 8.00097 42.2143 8.00097 40.0049V18.0022C8.00097 15.7928 6.2099 14.0017 4.00049 14.0017ZM12.0015 30.0036C12.0015 27.7942 13.7925 26.0032 16.0019 26.0032C18.2114 26.0032 20.0024 27.7942 20.0024 30.0036V36.0044C20.0024 38.2138 18.2114 40.0049 16.0019 40.0049C13.7925 40.0049 12.0015 38.2138 12.0015 36.0044V30.0036ZM40.0049 32.0039C37.7955 32.0039 36.0044 33.795 36.0044 36.0044V52.0063C36.0044 54.2157 37.7955 56.0068 40.0049 56.0068C42.2143 56.0068 44.0054 54.2157 44.0054 52.0063V36.0044C44.0054 33.795 42.2143 32.0039 40.0049 32.0039ZM36.0044 10.0012C36.0044 7.79181 37.7955 6.00073 40.0049 6.00073C42.2143 6.00073 44.0054 7.79181 44.0054 10.0012V24.0029C44.0054 26.2123 42.2143 28.0034 40.0049 28.0034C37.7955 28.0034 36.0044 26.2123 36.0044 24.0029V10.0012ZM16.0019 44.0053C13.7925 44.0053 12.0015 45.7964 12.0015 48.0058V52.0063C12.0015 54.2157 13.7925 56.0068 16.0019 56.0068C18.2114 56.0068 20.0024 54.2157 20.0024 52.0063V48.0058C20.0024 45.7964 18.2114 44.0053 16.0019 44.0053ZM12.0015 10.0012C12.0015 7.79181 13.7925 6.00073 16.0019 6.00073C18.2114 6.00073 20.0024 7.79181 20.0024 10.0012V18.0022C20.0024 20.2116 18.2114 22.0027 16.0019 22.0027C13.7925 22.0027 12.0015 20.2116 12.0015 18.0022V10.0012ZM52.0063 14.0017C49.7969 14.0017 48.0058 15.7928 48.0058 18.0022V40.0049C48.0058 42.2143 49.7969 44.0053 52.0063 44.0053C54.2157 44.0053 56.0068 42.2143 56.0068 40.0049V18.0022C56.0068 15.7928 54.2157 14.0017 52.0063 14.0017Z" fill="#F3F4F6"/>
<path d="M82.6553 43.3013C83.3594 43.3013 84.0315 43.2853 84.6716 43.2533C85.3117 43.2213 85.8237 43.1733 86.2078 43.1092V37.6846C85.9197 37.6206 85.4877 37.5566 84.9116 37.4926C84.3355 37.4286 83.8075 37.3965 83.3274 37.3965C82.6553 37.3965 82.0153 37.4446 81.4072 37.5406C80.8311 37.6046 80.3191 37.7486 79.871 37.9726C79.4229 38.1966 79.0709 38.5007 78.8149 38.8847C78.5588 39.2688 78.4308 39.7488 78.4308 40.3249C78.4308 41.445 78.7989 42.2291 79.535 42.6772C80.3031 43.0932 81.3432 43.3013 82.6553 43.3013ZM82.0793 22.3707C84.1915 22.3707 85.9517 22.6107 87.3599 23.0908C88.7681 23.5709 89.8882 24.2589 90.7203 25.1551C91.5844 26.0512 92.1925 27.1393 92.5445 28.4195C92.8966 29.6996 93.0726 31.1238 93.0726 32.692V47.5738C92.0485 47.7978 90.6243 48.0538 88.8001 48.3419C86.9759 48.6619 84.7676 48.8219 82.1753 48.8219C80.5431 48.8219 79.0549 48.6779 77.7107 48.3899C76.3986 48.1019 75.2624 47.6378 74.3023 46.9977C73.3422 46.3256 72.6061 45.4615 72.0941 44.4054C71.582 43.3493 71.326 42.0531 71.326 40.5169C71.326 39.0448 71.614 37.7966 72.1901 36.7725C72.7981 35.7483 73.5982 34.9322 74.5904 34.3242C75.5825 33.7161 76.7186 33.284 77.9988 33.028C79.2789 32.74 80.6071 32.596 81.9833 32.596C82.9114 32.596 83.7275 32.644 84.4316 32.74C85.1676 32.804 85.7597 32.9 86.2078 33.028V32.3559C86.2078 31.1398 85.8397 30.1637 85.1036 29.4276C84.3675 28.6915 83.0874 28.3234 81.2632 28.3234C80.047 28.3234 78.8469 28.4195 77.6627 28.6115C76.4786 28.7715 75.4545 29.0115 74.5904 29.3316L73.6782 23.5709C74.0943 23.4428 74.6064 23.3148 75.2144 23.1868C75.8545 23.0268 76.5426 22.8988 77.2787 22.8028C78.0148 22.6748 78.7829 22.5787 79.583 22.5147C80.4151 22.4187 81.2472 22.3707 82.0793 22.3707Z" fill="#F3F4F6"/>
<path d="M113.318 29.3796C112.678 29.2196 111.926 29.0595 111.062 28.8995C110.198 28.7075 109.27 28.6115 108.278 28.6115C107.83 28.6115 107.286 28.6595 106.646 28.7555C106.037 28.8195 105.573 28.8995 105.253 28.9955V48.2939H98.1005V24.387C99.3806 23.9389 100.885 23.5229 102.613 23.1388C104.373 22.7228 106.325 22.5147 108.47 22.5147C108.854 22.5147 109.318 22.5467 109.862 22.6107C110.406 22.6427 110.95 22.7068 111.494 22.8028C112.038 22.8668 112.582 22.9628 113.126 23.0908C113.67 23.1868 114.134 23.3148 114.518 23.4749L113.318 29.3796Z" fill="#F3F4F6"/>
<path d="M116.673 16.754L123.826 15.6019V23.0428H132.419V28.9955H123.826V37.8766C123.826 39.3808 124.082 40.5809 124.594 41.477C125.138 42.3732 126.21 42.8212 127.81 42.8212C128.578 42.8212 129.362 42.7572 130.162 42.6292C130.994 42.4692 131.747 42.2611 132.419 42.0051L133.427 47.5738C132.563 47.9258 131.603 48.2299 130.546 48.4859C129.49 48.7419 128.194 48.8699 126.658 48.8699C124.706 48.8699 123.09 48.6139 121.809 48.1018C120.529 47.5578 119.505 46.8217 118.737 45.8936C117.969 44.9335 117.425 43.7813 117.105 42.4372C116.817 41.093 116.673 39.6048 116.673 37.9726V16.754Z" fill="#F3F4F6"/>
<path d="M134.666 35.8604C134.666 33.6201 135.002 31.6679 135.674 30.0036C136.378 28.3074 137.29 26.8993 138.41 25.7791C139.53 24.659 140.81 23.8109 142.25 23.2348C143.723 22.6588 145.227 22.3707 146.763 22.3707C150.347 22.3707 153.18 23.4749 155.26 25.6831C157.34 27.8594 158.38 31.0758 158.38 35.3323C158.38 35.7483 158.364 36.2124 158.332 36.7245C158.3 37.2045 158.268 37.6366 158.236 38.0206H142.01C142.17 39.4928 142.859 40.6609 144.075 41.525C145.291 42.3892 146.923 42.8212 148.971 42.8212C150.283 42.8212 151.564 42.7092 152.812 42.4852C154.092 42.2291 155.132 41.9251 155.932 41.5731L156.892 47.3818C156.508 47.5738 155.996 47.7658 155.356 47.9578C154.716 48.1499 153.996 48.3099 153.196 48.4379C152.428 48.5979 151.596 48.7259 150.699 48.8219C149.803 48.9179 148.907 48.966 148.011 48.966C145.739 48.966 143.755 48.6299 142.058 47.9578C140.394 47.2858 139.002 46.3736 137.882 45.2215C136.794 44.0374 135.978 42.6452 135.434 41.045C134.922 39.4448 134.666 37.7166 134.666 35.8604ZM151.468 33.124C151.436 32.516 151.324 31.9239 151.132 31.3478C150.972 30.7717 150.699 30.2597 150.315 29.8116C149.963 29.3636 149.499 28.9955 148.923 28.7075C148.379 28.4195 147.691 28.2754 146.859 28.2754C146.059 28.2754 145.371 28.4195 144.795 28.7075C144.219 28.9635 143.739 29.3156 143.355 29.7636C142.971 30.2117 142.667 30.7397 142.442 31.3478C142.25 31.9239 142.106 32.516 142.01 33.124H151.468Z" fill="#F3F4F6"/>
<path d="M173.405 11.0413C174.75 11.0413 175.982 11.1854 177.102 11.4734C178.222 11.7294 179.086 11.9855 179.694 12.2415L178.302 17.9542C177.662 17.6661 176.958 17.4581 176.19 17.3301C175.454 17.1701 174.766 17.0901 174.126 17.0901C173.261 17.0901 172.525 17.2181 171.917 17.4741C171.341 17.6982 170.877 18.0182 170.525 18.4342C170.205 18.8503 169.965 19.3464 169.805 19.9224C169.677 20.4985 169.613 21.1226 169.613 21.7946V23.0428H178.446V28.9955H169.613V48.2939H162.46V21.6986C162.46 18.4342 163.372 15.8419 165.196 13.9217C167.053 12.0015 169.789 11.0413 173.405 11.0413Z" fill="#F3F4F6"/>
<path d="M190.547 43.3013C191.251 43.3013 191.923 43.2853 192.563 43.2533C193.203 43.2213 193.715 43.1733 194.099 43.1092V37.6846C193.811 37.6206 193.379 37.5566 192.803 37.4926C192.227 37.4286 191.699 37.3965 191.219 37.3965C190.547 37.3965 189.907 37.4446 189.298 37.5406C188.722 37.6046 188.21 37.7486 187.762 37.9726C187.314 38.1966 186.962 38.5007 186.706 38.8847C186.45 39.2688 186.322 39.7488 186.322 40.3249C186.322 41.445 186.69 42.2291 187.426 42.6772C188.194 43.0932 189.234 43.3013 190.547 43.3013ZM189.971 22.3707C192.083 22.3707 193.843 22.6107 195.251 23.0908C196.659 23.5709 197.779 24.2589 198.612 25.1551C199.476 26.0512 200.084 27.1393 200.436 28.4195C200.788 29.6996 200.964 31.1238 200.964 32.692V47.5738C199.94 47.7978 198.516 48.0538 196.691 48.3419C194.867 48.6619 192.659 48.8219 190.067 48.8219C188.434 48.8219 186.946 48.6779 185.602 48.3899C184.29 48.1019 183.154 47.6378 182.194 46.9977C181.233 46.3256 180.497 45.4615 179.985 44.4054C179.473 43.3493 179.217 42.0531 179.217 40.5169C179.217 39.0448 179.505 37.7966 180.081 36.7725C180.689 35.7483 181.489 34.9322 182.482 34.3242C183.474 33.7161 184.61 33.284 185.89 33.028C187.17 32.74 188.498 32.596 189.874 32.596C190.803 32.596 191.619 32.644 192.323 32.74C193.059 32.804 193.651 32.9 194.099 33.028V32.3559C194.099 31.1398 193.731 30.1637 192.995 29.4276C192.259 28.6915 190.979 28.3234 189.154 28.3234C187.938 28.3234 186.738 28.4195 185.554 28.6115C184.37 28.7715 183.346 29.0115 182.482 29.3316L181.569 23.5709C181.986 23.4428 182.498 23.3148 183.106 23.1868C183.746 23.0268 184.434 22.8988 185.17 22.8028C185.906 22.6748 186.674 22.5787 187.474 22.5147C188.306 22.4187 189.138 22.3707 189.971 22.3707Z" fill="#F3F4F6"/>
<path d="M213.145 32.1639C213.849 31.3958 214.569 30.5957 215.305 29.7636C216.073 28.9315 216.809 28.1154 217.513 27.3153C218.217 26.4832 218.873 25.6991 219.481 24.963C220.121 24.2269 220.665 23.5869 221.114 23.0428H229.611C227.914 24.995 226.25 26.8673 224.618 28.6595C223.018 30.4197 221.258 32.2439 219.337 34.1322C220.297 34.9963 221.29 36.0364 222.314 37.2525C223.338 38.4367 224.33 39.6688 225.29 40.949C226.25 42.2291 227.13 43.5093 227.93 44.7894C228.73 46.0696 229.403 47.2377 229.947 48.2939H221.738C221.226 47.4618 220.633 46.5497 219.961 45.5575C219.321 44.5334 218.633 43.5253 217.897 42.5332C217.161 41.509 216.377 40.5329 215.545 39.6048C214.745 38.6767 213.945 37.8926 213.145 37.2525V48.2939H205.992V12.1935L213.145 11.0413V32.1639Z" fill="#F3F4F6"/>
</svg>
